<svg version="1.1" id="Layer_1" xmlns="http://www.w3.org/2000/svg" xmlns:xlink="http://www.w3.org/1999/xlink" x="0px" y="0px"
	 width="100%" viewBox="0 0 400 400" enable-background="new 0 0 400 400" xml:space="preserve">
<path fill="#09090B" opacity="1.000000" stroke="none" 
	d="
M258.000000,401.000000 
	C172.000000,401.000000 86.500000,401.000000 1.000000,401.000000 
	C1.000000,267.666656 1.000000,134.333328 1.000000,1.000000 
	C134.333328,1.000000 267.666656,1.000000 401.000000,1.000000 
	C401.000000,134.333328 401.000000,267.666656 401.000000,401.000000 
	C353.500000,401.000000 306.000000,401.000000 258.000000,401.000000 
M171.215912,266.027130 
	C171.215912,266.027130 171.001953,266.090912 171.548645,265.977142 
	C171.710754,265.653778 171.872864,265.330444 172.444534,264.482452 
	C174.495880,259.736603 178.110855,255.801468 176.943390,249.681488 
	C174.857101,238.745056 173.397339,227.655258 172.372894,216.565170 
	C171.900635,211.452560 169.437698,209.241302 164.390472,207.897232 
	C157.008301,203.025330 149.626114,198.153427 141.628632,192.875458 
	C139.333664,199.707336 137.434753,205.360184 135.167252,211.569183 
	C134.518906,213.277481 134.049683,215.082520 133.189072,216.676193 
	C130.455597,221.737991 131.192093,226.138016 134.315857,230.988739 
	C142.495148,243.689911 150.165634,256.718018 158.117310,269.567322 
	C159.316895,271.505798 160.936462,273.184357 162.514679,275.570068 
	C163.161041,276.543701 163.807404,277.517334 164.772537,278.971130 
	C166.992645,274.749268 168.893219,271.135040 171.042679,267.131622 
	C171.183136,266.851135 171.262161,266.554260 171.215912,266.027130 
M301.276184,99.767822 
	C302.131561,102.385040 302.950867,105.014702 303.849213,107.617096 
	C306.382385,114.955460 310.119446,122.225868 304.306183,130.242889 
	C297.449554,136.152359 289.182068,137.220749 280.580383,137.189499 
	C273.182129,137.162643 265.783661,137.183945 257.408752,137.183945 
	C262.539764,142.601471 267.157196,147.476730 272.018768,152.965179 
	C274.887329,156.195007 277.620697,159.561691 280.687500,162.590805 
	C282.010345,163.897385 284.018463,165.292999 285.722992,165.302734 
	C296.501831,165.364380 307.451477,166.181076 318.025543,164.605820 
	C336.222900,161.894882 346.108612,144.706818 332.338715,128.023575 
	C324.433044,118.445267 315.381897,109.809853 306.781830,100.811684 
	C306.036377,100.031731 304.806854,99.714424 303.425415,98.936104 
	C303.195129,98.737022 303.011200,98.501709 302.820435,97.642418 
	C301.790222,96.973366 300.760040,96.304306 299.729828,95.635246 
	C299.511322,95.920197 299.292816,96.205147 299.074310,96.490097 
	C299.696838,97.354248 300.319336,98.218407 301.276184,99.767822 
M252.689957,199.979645 
	C247.408936,203.127533 241.979660,206.060150 236.927139,209.539841 
	C235.153564,210.761322 233.567017,213.187027 233.169037,215.302536 
	C231.849564,222.316299 231.059143,229.432755 230.163803,236.522186 
	C229.373566,242.779510 226.832474,249.594040 228.440628,255.192749 
	C230.826843,263.500153 236.192947,270.951599 240.683426,279.516602 
	C241.628830,277.722015 242.005829,277.006439 242.929794,275.918610 
	C253.067139,259.506317 263.230927,243.110199 273.284454,226.646744 
	C273.981232,225.505722 274.410797,223.677628 274.011505,222.489304 
	C272.806793,218.903976 271.131592,215.476746 269.664764,211.233978 
	C267.732056,205.403229 265.799377,199.572479 263.652435,193.095337 
	C259.639679,195.706787 256.482147,197.761658 252.689957,199.979645 
M140.682404,144.800613 
	C142.848312,142.390686 145.014221,139.980759 147.922226,136.745132 
	C145.377548,136.745132 143.944855,136.735977 142.512283,136.746628 
	C134.217896,136.808304 125.885689,137.411362 117.637001,136.829178 
	C99.740898,135.566101 94.278038,126.637764 100.472542,109.944092 
	C101.546150,107.050797 102.159317,103.986649 103.237526,100.589264 
	C103.829742,99.064209 104.421967,97.539146 105.481972,95.926483 
	C106.405060,95.239998 107.328148,94.553513 108.251244,93.867027 
	C107.922935,93.513023 107.594627,93.159019 107.266319,92.805016 
	C106.387642,93.763687 105.508965,94.722359 103.998550,95.913269 
	C93.481606,106.726891 82.298302,116.980339 72.617294,128.496674 
	C60.659359,142.721603 66.654961,160.334045 84.904411,163.816696 
	C96.305573,165.992447 108.320686,164.993942 120.063820,165.268341 
	C121.233810,165.295700 122.753189,164.561981 123.555023,163.677795 
	C126.885345,160.005417 130.002640,156.139847 133.837250,152.110367 
	C135.916901,149.761398 137.996536,147.412415 140.682404,144.800613 
M182.646317,268.502045 
	C178.224945,276.848206 173.737885,285.160950 169.451721,293.575989 
	C168.794846,294.865601 168.329529,297.287567 169.025909,298.063019 
	C173.399261,302.932953 178.126602,307.484985 182.694580,312.776672 
	C183.303864,316.172516 185.493225,317.248932 188.739075,317.220551 
	C197.388824,317.144897 206.044571,317.051453 214.688126,317.302521 
	C218.426727,317.411102 221.152466,316.471619 223.310211,312.595459 
	C227.218414,308.291260 231.279953,304.111420 234.936386,299.603027 
	C235.962296,298.338043 236.674286,295.669525 236.036392,294.388916 
	C231.600647,285.484009 226.771301,276.775177 222.008636,267.280243 
	C220.231262,263.881195 218.453873,260.482178 216.742828,256.205231 
	C218.992447,240.568771 221.119919,224.912659 223.626938,209.317581 
	C223.991409,207.050507 225.710999,204.455429 227.584671,203.064026 
	C241.343460,192.846680 255.305450,182.903122 269.189636,172.854202 
	C270.596497,171.835968 271.911987,170.691467 273.549957,169.381592 
	C269.754486,165.270676 266.389008,161.625488 262.737030,157.375458 
	C259.727875,154.039871 256.306580,150.986359 253.792160,147.312180 
	C247.880157,138.673325 239.503281,134.413818 229.671570,132.038757 
	C226.645279,131.307693 224.490036,131.536926 221.975983,133.482254 
	C216.588257,137.651199 210.794144,141.292572 205.365311,145.412033 
	C203.215469,147.043350 201.747803,146.884552 199.718613,145.374390 
	C194.117157,141.205704 188.390671,137.204300 182.687332,133.173950 
	C181.616165,132.417023 180.180191,131.034409 179.325470,131.294968 
	C172.859573,133.266083 165.305374,134.111237 160.379471,138.120056 
	C152.893372,144.212402 147.252869,152.572586 140.199997,160.170456 
	C137.421204,163.172729 134.642410,166.175018 131.664917,169.391983 
	C133.320633,170.715561 134.434219,171.684708 135.625687,172.546143 
	C149.339493,182.461624 163.000244,192.452835 176.835037,202.196838 
	C180.129120,204.516891 181.498306,207.287277 182.034485,211.149323 
	C184.153900,226.415466 186.540970,241.644440 188.326050,257.347168 
	C186.589905,260.897064 184.853760,264.446930 182.646317,268.502045 
z"/>
<path fill="#469B6F" opacity="1.000000" stroke="none" 
	d="
M263.023529,157.980316 
	C266.389008,161.625488 269.754486,165.270676 273.549957,169.381592 
	C271.911987,170.691467 270.596497,171.835968 269.189636,172.854202 
	C255.305450,182.903122 241.343460,192.846680 227.584671,203.064026 
	C225.710999,204.455429 223.991409,207.050507 223.626938,209.317581 
	C221.119919,224.912659 218.992447,240.568771 216.365646,256.726807 
	C215.185822,257.454834 214.261841,257.471924 213.599136,257.896667 
	C206.078644,262.716736 198.614014,262.207977 191.128723,257.835693 
	C190.419418,257.421387 189.598083,257.198792 188.828766,256.887207 
	C186.540970,241.644440 184.153900,226.415466 182.034485,211.149323 
	C181.498306,207.287277 180.129120,204.516891 176.835037,202.196838 
	C163.000244,192.452835 149.339493,182.461624 135.625687,172.546143 
	C134.434219,171.684708 133.320633,170.715561 131.664917,169.391983 
	C134.642410,166.175018 137.421204,163.172729 140.880249,160.106354 
	C148.519745,163.888992 155.190216,168.445129 162.503510,171.422028 
	C174.523163,176.314651 186.931152,181.260498 199.060623,171.104248 
	C202.516846,168.210297 205.821701,170.294388 208.516312,172.528992 
	C214.352585,177.368927 220.872635,177.980652 227.781754,176.090942 
	C233.538361,174.516479 239.374939,172.968353 244.821960,170.595566 
	C251.639847,167.625626 258.579834,164.514954 263.023529,157.980316 
z"/>
<path fill="#5AC68D" opacity="1.000000" stroke="none" 
	d="
M262.880280,157.677887 
	C258.579834,164.514954 251.639847,167.625626 244.821960,170.595566 
	C239.374939,172.968353 233.538361,174.516479 227.781754,176.090942 
	C220.872635,177.980652 214.352585,177.368927 208.516312,172.528992 
	C205.821701,170.294388 202.516846,168.210297 199.060623,171.104248 
	C186.931152,181.260498 174.523163,176.314651 162.503510,171.422028 
	C155.190216,168.445129 148.519745,163.888992 141.194489,160.005890 
	C147.252869,152.572586 152.893372,144.212402 160.379471,138.120056 
	C165.305374,134.111237 172.859573,133.266083 179.325470,131.294968 
	C180.180191,131.034409 181.616165,132.417023 182.687332,133.173950 
	C188.390671,137.204300 194.117157,141.205704 199.718613,145.374390 
	C201.747803,146.884552 203.215469,147.043350 205.365311,145.412033 
	C210.794144,141.292572 216.588257,137.651199 221.975983,133.482254 
	C224.490036,131.536926 226.645279,131.307693 229.671570,132.038757 
	C239.503281,134.413818 247.880157,138.673325 253.792160,147.312180 
	C256.306580,150.986359 259.727875,154.039871 262.880280,157.677887 
z"/>
<path fill="#2A5C41" opacity="1.000000" stroke="none" 
	d="
M182.736877,312.142181 
	C178.126602,307.484985 173.399261,302.932953 169.025909,298.063019 
	C168.329529,297.287567 168.794846,294.865601 169.451721,293.575989 
	C173.737885,285.160950 178.224945,276.848206 183.240524,268.319275 
	C196.077835,274.128448 208.327393,275.122833 220.607697,268.223083 
	C221.008957,267.997620 221.577576,268.069946 222.068176,268.003448 
	C226.771301,276.775177 231.600647,285.484009 236.036392,294.388916 
	C236.674286,295.669525 235.962296,298.338043 234.936386,299.603027 
	C231.279953,304.111420 227.218414,308.291260 222.690445,312.686401 
	C217.994385,311.486053 213.827423,310.422485 209.864960,308.845245 
	C205.014923,306.914764 200.443069,306.895111 195.524185,308.757416 
	C191.422516,310.310333 187.011108,311.045074 182.736877,312.142181 
z"/>
<path fill="#479A6F" opacity="1.000000" stroke="none" 
	d="
M135.535858,211.013046 
	C137.434753,205.360184 139.333664,199.707336 141.628632,192.875458 
	C149.626114,198.153427 157.008301,203.025330 164.853165,208.295761 
	C168.385941,213.015808 171.484909,217.208618 171.638184,222.954178 
	C171.823654,229.906662 171.590866,237.088455 173.281631,243.727203 
	C175.375275,251.947754 174.576309,259.069031 169.988373,265.983398 
	C169.989212,265.994720 169.974777,266.002960 169.804138,266.161285 
	C169.411072,266.536865 169.198013,266.762970 168.727768,267.177368 
	C166.397049,267.934021 164.332901,268.511261 162.198395,268.803802 
	C162.103683,268.325134 162.079330,268.131165 162.060120,267.821960 
	C162.062286,267.474640 162.028793,267.246826 161.825455,266.660339 
	C160.779266,262.242096 159.920914,258.175262 158.954849,254.134201 
	C157.295990,247.195129 156.967773,239.461777 153.533905,233.538437 
	C148.766937,225.315536 141.647919,218.456161 135.535858,211.013046 
z"/>
<path fill="#2A5C41" opacity="1.000000" stroke="none" 
	d="
M303.802185,99.182205 
	C304.806854,99.714424 306.036377,100.031731 306.781830,100.811684 
	C315.381897,109.809853 324.433044,118.445267 332.338715,128.023575 
	C346.108612,144.706818 336.222900,161.894882 318.025543,164.605820 
	C307.451477,166.181076 296.501831,165.364380 285.722992,165.302734 
	C284.018463,165.292999 282.010345,163.897385 280.687500,162.590805 
	C277.620697,159.561691 274.887329,156.195007 272.311523,152.595642 
	C273.714508,152.150024 274.824799,152.073914 276.348816,152.092239 
	C280.866974,152.225128 284.971405,152.263565 289.377136,152.368729 
	C290.493683,152.363434 291.308899,152.291412 292.435242,152.272552 
	C293.161499,152.270691 293.576630,152.215683 294.450012,152.223770 
	C302.935394,150.807465 310.962524,149.328079 319.238586,147.797821 
	C320.008850,147.343597 320.530273,146.940216 321.329407,146.363739 
	C321.763855,145.806961 321.920593,145.423264 322.048096,145.036835 
	C322.018860,145.034119 322.048920,145.084564 322.342346,145.059723 
	C322.785126,144.699341 322.934509,144.363800 323.110474,144.196014 
	C323.137054,144.363770 323.476746,144.362289 323.745697,144.085693 
	C326.557281,139.312927 324.767822,135.191925 322.871948,130.792130 
	C322.568665,130.006042 322.305420,129.504501 321.990448,128.685669 
	C321.335358,127.525230 320.731995,126.682053 320.086609,125.610367 
	C320.044556,125.381866 319.891113,124.943253 319.839813,124.598434 
	C315.098389,117.132072 310.391968,110.021164 305.734650,102.878235 
	C304.978821,101.719040 304.440857,100.417793 303.802185,99.182205 
z"/>
<path fill="#2A5C42" opacity="1.000000" stroke="none" 
	d="
M133.198120,152.345169 
	C130.002640,156.139847 126.885345,160.005417 123.555023,163.677795 
	C122.753189,164.561981 121.233810,165.295700 120.063820,165.268341 
	C108.320686,164.993942 96.305573,165.992447 84.904411,163.816696 
	C66.654961,160.334045 60.659359,142.721603 72.617294,128.496674 
	C82.298302,116.980339 93.481606,106.726891 104.410950,95.879776 
	C104.823349,95.846283 105.014191,96.014091 105.014191,96.014091 
	C104.421967,97.539146 103.829742,99.064209 102.748985,100.750313 
	C97.383553,107.574654 92.506660,114.237946 87.708656,120.989609 
	C87.787537,121.077988 87.971947,120.929245 87.665733,121.019760 
	C87.164169,121.485092 86.968819,121.859901 86.764328,122.248581 
	C86.755188,122.262451 86.782974,122.280602 86.508621,122.526337 
	C85.336784,124.358559 84.185303,125.855644 83.589569,127.548317 
	C81.819778,132.576889 78.273209,137.344955 81.003311,143.466858 
	C84.559898,145.860641 87.773293,148.844818 91.513771,149.832108 
	C104.464470,153.250488 117.736893,153.219971 131.377747,152.044098 
	C132.227478,152.184296 132.712799,152.264740 133.198120,152.345169 
z"/>
<path fill="#2A5B41" opacity="1.000000" stroke="none" 
	d="
M269.639801,211.987885 
	C271.131592,215.476746 272.806793,218.903976 274.011505,222.489304 
	C274.410797,223.677628 273.981232,225.505722 273.284454,226.646744 
	C263.230927,243.110199 253.067139,259.506317 242.620026,275.696960 
	C242.791428,272.332947 243.272598,269.190613 243.837128,265.636505 
	C245.778290,256.478729 247.447662,247.686096 249.594604,239.011658 
	C250.360886,235.915634 251.912567,232.845352 253.755630,230.219482 
	C257.647736,224.674301 261.968292,219.429825 266.365112,213.908051 
	C267.624695,213.165375 268.632233,212.576630 269.639801,211.987885 
z"/>
<path fill="#2A5B41" opacity="1.000000" stroke="none" 
	d="
M135.351547,211.291107 
	C141.647919,218.456161 148.766937,225.315536 153.533905,233.538437 
	C156.967773,239.461777 157.295990,247.195129 158.954849,254.134201 
	C159.920914,258.175262 160.779266,262.242096 161.834503,266.889923 
	C161.982925,267.482513 162.054962,267.937164 162.054962,267.937164 
	C162.079330,268.131165 162.103683,268.325134 162.211014,269.141296 
	C162.316589,271.503357 162.339172,273.243256 162.361771,274.983124 
	C160.936462,273.184357 159.316895,271.505798 158.117310,269.567322 
	C150.165634,256.718018 142.495148,243.689911 134.315857,230.988739 
	C131.192093,226.138016 130.455597,221.737991 133.189072,216.676193 
	C134.049683,215.082520 134.518906,213.277481 135.351547,211.291107 
z"/>
<path fill="#5DC38D" opacity="1.000000" stroke="none" 
	d="
M222.038406,267.641846 
	C221.577576,268.069946 221.008957,267.997620 220.607697,268.223083 
	C208.327393,275.122833 196.077835,274.128448 183.476166,268.066681 
	C184.853760,264.446930 186.589905,260.897064 188.577408,257.117188 
	C189.598083,257.198792 190.419418,257.421387 191.128723,257.835693 
	C198.614014,262.207977 206.078644,262.716736 213.599136,257.896667 
	C214.261841,257.471924 215.185822,257.454834 216.332489,257.165771 
	C218.453873,260.482178 220.231262,263.881195 222.038406,267.641846 
z"/>
<path fill="#63BB8C" opacity="1.000000" stroke="none" 
	d="
M87.629776,120.901237 
	C92.506660,114.237946 97.383553,107.574654 102.622803,100.956390 
	C102.159317,103.986649 101.546150,107.050797 100.472542,109.944092 
	C94.278038,126.637764 99.740898,135.566101 117.637001,136.829178 
	C125.885689,137.411362 134.217896,136.808304 142.512283,136.746628 
	C143.944855,136.735977 145.377548,136.745132 147.922226,136.745132 
	C145.014221,139.980759 142.848312,142.390686 140.317474,144.885666 
	C139.952530,144.970718 139.828827,144.878021 139.853912,144.516479 
	C139.911301,143.430191 139.943588,142.705475 139.993195,141.735382 
	C140.010529,141.490021 140.046921,140.999405 140.224976,140.916077 
	C140.286835,140.223267 140.170639,139.613800 139.729706,138.965973 
	C125.336288,144.172546 112.260422,135.655518 98.626556,136.197723 
	C97.327957,129.737366 96.078636,123.522209 94.854317,117.431374 
	C91.957977,118.822449 89.793877,119.861847 87.629776,120.901237 
z"/>
<path fill="#61C18F" opacity="1.000000" stroke="none" 
	d="
M182.715729,312.459412 
	C187.011108,311.045074 191.422516,310.310333 195.524185,308.757416 
	C200.443069,306.895111 205.014923,306.914764 209.864960,308.845245 
	C213.827423,310.422485 217.994385,311.486053 222.409073,312.881592 
	C221.152466,316.471619 218.426727,317.411102 214.688126,317.302521 
	C206.044571,317.051453 197.388824,317.144897 188.739075,317.220551 
	C185.493225,317.248932 183.303864,316.172516 182.715729,312.459412 
z"/>
<path fill="#4D8C6C" opacity="1.000000" stroke="none" 
	d="
M243.753784,266.048279 
	C243.272598,269.190613 242.791428,272.332947 242.346527,275.883057 
	C242.005829,277.006439 241.628830,277.722015 240.683426,279.516602 
	C236.192947,270.951599 230.826843,263.500153 228.440628,255.192749 
	C226.832474,249.594040 229.373566,242.779510 230.163803,236.522186 
	C231.059143,229.432755 231.849564,222.316299 233.169037,215.302536 
	C233.567017,213.187027 235.153564,210.761322 236.927139,209.539841 
	C241.979660,206.060150 247.408936,203.127533 253.435669,199.931885 
	C254.752228,199.927002 255.323059,199.969879 255.645630,200.227814 
	C253.709015,201.501526 252.000549,202.529510 250.335815,203.624008 
	C242.388840,208.848694 235.178162,214.811615 233.442444,224.827209 
	C232.027191,232.993668 230.545471,241.257294 230.421997,249.497742 
	C230.349121,254.361557 232.185638,259.609192 234.440613,264.033264 
	C236.063293,267.216827 239.853867,269.030884 243.753784,266.048279 
z"/>
<path fill="#64B98C" opacity="1.000000" stroke="none" 
	d="
M275.935059,151.997803 
	C274.824799,152.073914 273.714508,152.150024 272.189423,152.289062 
	C267.157196,147.476730 262.539764,142.601471 257.408752,137.183945 
	C265.783661,137.183945 273.182129,137.162643 280.580383,137.189499 
	C289.182068,137.220749 297.449554,136.152359 304.687286,130.146729 
	C305.068390,130.050552 305.213348,130.168137 305.098328,130.482910 
	C304.031403,132.126694 303.365997,134.129089 302.081238,134.675690 
	C293.563110,138.299698 285.152222,142.560791 275.331421,140.571365 
	C271.524445,139.800186 267.617126,139.524506 263.755524,139.023102 
	C263.412262,139.568680 263.069031,140.114258 262.725769,140.659836 
	C267.128876,144.439163 271.531952,148.218475 275.935059,151.997803 
z"/>
<path fill="#64B98C" opacity="1.000000" stroke="none" 
	d="
M303.613800,99.059151 
	C304.440857,100.417793 304.978821,101.719040 305.734650,102.878235 
	C310.391968,110.021164 315.098389,117.132072 319.499573,124.542847 
	C316.513092,122.457756 313.815582,120.083427 311.648804,118.176254 
	C309.463989,122.247459 307.338684,126.207802 305.213348,130.168137 
	C305.213348,130.168137 305.068390,130.050552 304.995941,129.991730 
	C310.119446,122.225868 306.382385,114.955460 303.849213,107.617096 
	C302.950867,105.014702 302.131561,102.385040 301.362305,99.347488 
	C301.923523,98.694817 302.398560,98.462486 302.873627,98.230164 
	C303.011200,98.501709 303.195129,98.737022 303.613800,99.059151 
z"/>
<path fill="#528E6F" opacity="1.000000" stroke="none" 
	d="
M169.987518,265.972107 
	C174.576309,259.069031 175.375275,251.947754 173.281631,243.727203 
	C171.590866,237.088455 171.823654,229.906662 171.638184,222.954178 
	C171.484909,217.208618 168.385941,213.015808 165.194489,208.381897 
	C169.437698,209.241302 171.900635,211.452560 172.372894,216.565170 
	C173.397339,227.655258 174.857101,238.745056 176.943390,249.681488 
	C178.110855,255.801468 174.495880,259.736603 172.071625,264.929443 
	C171.473389,265.621399 171.241135,265.859528 171.001953,266.090912 
	C171.001953,266.090912 171.215912,266.027130 170.924622,266.065857 
	C170.418060,266.060394 170.202789,266.016235 169.987518,265.972107 
z"/>
<path fill="#528E6F" opacity="1.000000" stroke="none" 
	d="
M255.893906,200.012756 
	C255.323059,199.969879 254.752228,199.927002 253.753006,199.850327 
	C256.482147,197.761658 259.639679,195.706787 263.652435,193.095337 
	C265.799377,199.572479 267.732056,205.403229 269.652283,211.610931 
	C268.632233,212.576630 267.624695,213.165375 266.336975,213.479034 
	C265.688995,210.574234 265.500061,207.904022 264.916199,205.323181 
	C263.684814,199.880219 261.675964,198.773376 255.893906,200.012756 
z"/>
<path fill="#519070" opacity="1.000000" stroke="none" 
	d="
M162.438232,275.276611 
	C162.339172,273.243256 162.316589,271.503357 162.281372,269.425995 
	C164.332901,268.511261 166.397049,267.934021 168.977127,267.176178 
	C169.493042,266.995544 169.991562,266.991669 170.190521,267.126373 
	C170.389496,267.261078 170.793793,267.520844 170.793793,267.520844 
	C168.893219,271.135040 166.992645,274.749268 164.772537,278.971130 
	C163.807404,277.517334 163.161041,276.543701 162.438232,275.276611 
z"/>
<path fill="#63BB8C" opacity="1.000000" stroke="none" 
	d="
M133.517685,152.227768 
	C132.712799,152.264740 132.227478,152.184296 131.595398,151.794434 
	C134.242035,149.282684 137.035431,147.080353 139.828827,144.878021 
	C139.828827,144.878021 139.952530,144.970718 140.014359,145.017090 
	C137.996536,147.412415 135.916901,149.761398 133.517685,152.227768 
z"/>
<path fill="#2A5C41" opacity="1.000000" stroke="none" 
	d="
M302.847046,97.936287 
	C302.398560,98.462486 301.923523,98.694817 301.195129,99.004852 
	C300.319336,98.218407 299.696838,97.354248 299.074310,96.490097 
	C299.292816,96.205147 299.511322,95.920197 299.729828,95.635246 
	C300.760040,96.304306 301.790222,96.973366 302.847046,97.936287 
z"/>
<path fill="#2A5C42" opacity="1.000000" stroke="none" 
	d="
M104.726822,95.763657 
	C105.508965,94.722359 106.387642,93.763687 107.266319,92.805016 
	C107.594627,93.159019 107.922935,93.513023 108.251244,93.867027 
	C107.328148,94.553513 106.405060,95.239998 105.248077,95.970291 
	C105.014191,96.014091 104.823349,95.846283 104.726822,95.763657 
z"/>
<path fill="#519070" opacity="1.000000" stroke="none" 
	d="
M171.275299,266.034027 
	C171.241135,265.859528 171.473389,265.621399 171.866837,265.191772 
	C171.872864,265.330444 171.710754,265.653778 171.275299,266.034027 
z"/>
<path fill="#519070" opacity="1.000000" stroke="none" 
	d="
M169.988373,265.983398 
	C170.202789,266.016235 170.418060,266.060394 170.956543,266.172821 
	C171.262161,266.554260 171.183136,266.851135 170.918243,267.326233 
	C170.793793,267.520844 170.389496,267.261078 170.187378,266.879272 
	C169.985245,266.497437 169.974777,266.002960 169.974777,266.002960 
	C169.974777,266.002960 169.989212,265.994720 169.988373,265.983398 
z"/>
<path fill="#528E6F" opacity="1.000000" stroke="none" 
	d="
M169.804138,266.161285 
	C169.974777,266.002960 169.985245,266.497437 169.988403,266.744568 
	C169.991562,266.991669 169.493042,266.995544 169.243683,266.996704 
	C169.198013,266.762970 169.411072,266.536865 169.804138,266.161285 
z"/>
<path fill="#519070" opacity="1.000000" stroke="none" 
	d="
M162.060120,267.821960 
	C162.054962,267.937164 161.982925,267.482513 161.973877,267.252930 
	C162.028793,267.246826 162.062286,267.474640 162.060120,267.821960 
z"/>
<path fill="#59C68C" opacity="1.000000" stroke="none" 
	d="
M305.098328,130.482910 
	C307.338684,126.207802 309.463989,122.247459 311.648804,118.176254 
	C313.815582,120.083427 316.513092,122.457756 319.550842,124.887665 
	C319.891113,124.943253 320.044556,125.381866 320.163330,125.915657 
	C320.868774,127.300613 321.455475,128.151779 322.042175,129.002945 
	C322.305420,129.504501 322.568665,130.006042 322.816895,131.110229 
	C323.026825,135.929352 323.251770,140.145828 323.476746,144.362289 
	C323.476746,144.362289 323.137054,144.363770 322.941223,144.375122 
	C322.516907,144.622833 322.284760,144.855530 322.048920,145.084564 
	C322.048920,145.084564 322.018860,145.034119 321.873322,145.282928 
	C321.502411,145.866760 321.277039,146.201782 321.051666,146.536804 
	C320.530273,146.940216 320.008850,147.343597 319.028625,147.631287 
	C311.357788,148.218933 304.134491,148.831085 296.946136,149.724686 
	C295.876953,149.857590 294.972443,151.315659 293.991760,152.160675 
	C293.576630,152.215683 293.161499,152.270691 292.218079,152.167908 
	C290.818481,152.107437 289.947144,152.204727 289.075836,152.302017 
	C284.971405,152.263565 280.866974,152.225128 276.348816,152.092239 
	C271.531952,148.218475 267.128876,144.439163 262.725769,140.659836 
	C263.069031,140.114258 263.412262,139.568680 263.755524,139.023102 
	C267.617126,139.524506 271.524445,139.800186 275.331421,140.571365 
	C285.152222,142.560791 293.563110,138.299698 302.081238,134.675690 
	C303.365997,134.129089 304.031403,132.126694 305.098328,130.482910 
z"/>
<path fill="#63C291" opacity="1.000000" stroke="none" 
	d="
M294.450012,152.223770 
	C294.972443,151.315659 295.876953,149.857590 296.946136,149.724686 
	C304.134491,148.831085 311.357788,148.218933 318.779724,147.682129 
	C310.962524,149.328079 302.935394,150.807465 294.450012,152.223770 
z"/>
<path fill="#64B98C" opacity="1.000000" stroke="none" 
	d="
M323.745697,144.085693 
	C323.251770,140.145828 323.026825,135.929352 322.856934,131.394775 
	C324.767822,135.191925 326.557281,139.312927 323.745697,144.085693 
z"/>
<path fill="#64B98C" opacity="1.000000" stroke="none" 
	d="
M321.990448,128.685669 
	C321.455475,128.151779 320.868774,127.300613 320.205353,126.144165 
	C320.731995,126.682053 321.335358,127.525230 321.990448,128.685669 
z"/>
<path fill="#63C291" opacity="1.000000" stroke="none" 
	d="
M289.377136,152.368729 
	C289.947144,152.204727 290.818481,152.107437 291.906982,152.114777 
	C291.308899,152.291412 290.493683,152.363434 289.377136,152.368729 
z"/>
<path fill="#64B98C" opacity="1.000000" stroke="none" 
	d="
M322.342346,145.059723 
	C322.284760,144.855530 322.516907,144.622833 322.914612,144.207352 
	C322.934509,144.363800 322.785126,144.699341 322.342346,145.059723 
z"/>
<path fill="#64B98C" opacity="1.000000" stroke="none" 
	d="
M321.329407,146.363739 
	C321.277039,146.201782 321.502411,145.866760 321.902557,145.285645 
	C321.920593,145.423264 321.763855,145.806961 321.329407,146.363739 
z"/>
<path fill="#58C88D" opacity="1.000000" stroke="none" 
	d="
M87.708656,120.989609 
	C89.793877,119.861847 91.957977,118.822449 94.854317,117.431374 
	C96.078636,123.522209 97.327957,129.737366 98.626556,136.197723 
	C112.260422,135.655518 125.336288,144.172546 139.725769,139.298309 
	C140.046692,140.112488 140.046799,140.555939 140.046921,140.999405 
	C140.046921,140.999405 140.010529,141.490021 139.669037,141.857925 
	C132.611130,146.215408 125.535316,150.130280 117.661713,149.667404 
	C105.156151,148.932190 92.089859,149.922501 81.039932,141.572891 
	C81.476097,139.438797 81.351151,137.160614 82.429039,136.053329 
	C86.277397,132.099945 86.211243,127.136475 86.782974,122.280602 
	C86.782974,122.280602 86.755188,122.262451 86.965378,122.027687 
	C87.441025,121.505028 87.706490,121.217140 87.971954,120.929245 
	C87.971947,120.929245 87.787537,121.077988 87.708656,120.989609 
z"/>
<path fill="#5EBE8C" opacity="1.000000" stroke="none" 
	d="
M81.030579,141.965897 
	C92.089859,149.922501 105.156151,148.932190 117.661713,149.667404 
	C125.535316,150.130280 132.611130,146.215408 139.651703,142.103287 
	C139.943588,142.705475 139.911301,143.430191 139.853912,144.516479 
	C137.035431,147.080353 134.242035,149.282684 131.230988,151.734680 
	C117.736893,153.219971 104.464470,153.250488 91.513771,149.832108 
	C87.773293,148.844818 84.559898,145.860641 81.035614,143.173157 
	C80.987770,142.358215 81.009178,142.162064 81.030579,141.965897 
z"/>
<path fill="#63BB8C" opacity="1.000000" stroke="none" 
	d="
M81.039932,141.572891 
	C81.009178,142.162064 80.987770,142.358215 80.934067,142.848053 
	C78.273209,137.344955 81.819778,132.576889 83.589569,127.548317 
	C84.185303,125.855644 85.336784,124.358559 86.508621,122.526337 
	C86.211243,127.136475 86.277397,132.099945 82.429039,136.053329 
	C81.351151,137.160614 81.476097,139.438797 81.039932,141.572891 
z"/>
<path fill="#63BB8C" opacity="1.000000" stroke="none" 
	d="
M87.665741,121.019760 
	C87.706490,121.217140 87.441025,121.505028 86.974518,122.013817 
	C86.968819,121.859901 87.164169,121.485092 87.665741,121.019760 
z"/>
<path fill="#469B6F" opacity="1.000000" stroke="none" 
	d="
M255.645630,200.227814 
	C261.675964,198.773376 263.684814,199.880219 264.916199,205.323181 
	C265.500061,207.904022 265.688995,210.574234 266.084961,213.632965 
	C261.968292,219.429825 257.647736,224.674301 253.755630,230.219482 
	C251.912567,232.845352 250.360886,235.915634 249.594604,239.011658 
	C247.447662,247.686096 245.778290,256.478729 243.837128,265.636505 
	C239.853867,269.030884 236.063293,267.216827 234.440613,264.033264 
	C232.185638,259.609192 230.349121,254.361557 230.421997,249.497742 
	C230.545471,241.257294 232.027191,232.993668 233.442444,224.827209 
	C235.178162,214.811615 242.388840,208.848694 250.335815,203.624008 
	C252.000549,202.529510 253.709015,201.501526 255.645630,200.227814 
z"/>
<path fill="#5EBE8C" opacity="1.000000" stroke="none" 
	d="
M140.224976,140.916077 
	C140.046799,140.555939 140.046692,140.112488 140.050507,139.336670 
	C140.170639,139.613800 140.286835,140.223267 140.224976,140.916077 
z"/>
</svg>