<svg version="1.1" id="Layer_1" xmlns="http://www.w3.org/2000/svg" xmlns:xlink="http://www.w3.org/1999/xlink" x="0px" y="0px"
	 width="100%" viewBox="0 0 400 400" enable-background="new 0 0 400 400" xml:space="preserve">
<path fill="#000000" opacity="1.000000" stroke="none" 
	d="
M200.924088,338.967621 
	C152.442993,375.545197 83.421204,355.881805 62.129295,299.337891 
	C48.061226,261.977936 54.592281,227.643723 81.427391,198.296906 
	C116.933632,159.467392 152.006042,120.222649 188.601242,82.397408 
	C201.139587,69.437645 213.955261,56.857822 231.555481,50.611877 
	C275.544586,35.001080 322.798401,50.989422 344.027802,94.834908 
	C360.017151,127.858147 358.294189,160.997452 337.395691,191.980942 
	C330.691620,201.920197 321.686737,210.070908 313.621429,218.931183 
	C287.730377,247.374298 261.771484,275.757141 235.641449,303.980560 
	C224.561829,315.947784 213.698166,328.162842 200.924088,338.967621 
M176.021439,162.474869 
	C205.268585,190.586334 234.515747,218.697800 264.039490,247.075119 
	C265.695221,245.509995 266.935791,244.449112 268.049072,243.268173 
	C285.865265,224.369064 303.681854,205.470276 321.454681,186.530457 
	C325.006775,182.745178 327.957001,178.480148 330.063843,173.728043 
	C341.508728,147.913193 341.465881,122.204803 327.693085,97.386871 
	C304.447266,55.498886 246.345459,47.278275 212.032120,81.290321 
	C193.246674,99.910843 175.770370,119.850342 157.626312,139.122177 
	C155.686844,141.182190 155.687988,142.485062 157.740036,144.442947 
	C163.761520,150.188110 169.601669,156.123337 176.021439,162.474869 
M120.912254,261.768036 
	C122.030830,267.156372 120.905876,272.734924 122.334312,278.103973 
	C124.176750,285.029144 122.917450,291.999084 122.467384,298.943542 
	C122.282013,301.803772 121.180939,304.153107 118.977852,306.366730 
	C113.859428,311.509613 115.294472,316.631439 122.280663,318.419281 
	C142.404755,323.569275 161.208572,320.452911 178.553482,308.910492 
	C179.518875,308.268097 180.342834,306.956482 182.276230,308.143524 
	C177.779022,312.648193 173.496872,316.983917 167.985641,321.137421 
	C171.190369,322.011536 173.267853,322.528839 175.315536,323.145203 
	C184.391754,325.877289 190.634430,324.046844 196.422928,316.361877 
	C200.730759,310.642670 205.108841,305.020508 210.381454,300.159271 
	C213.474731,297.307343 216.096863,294.104401 218.040009,290.378571 
	C220.012894,286.595642 222.586197,283.510681 226.508240,281.520599 
	C228.190979,280.666748 229.899155,279.371643 230.176117,277.171478 
	C228.764465,275.660400 227.413742,274.227051 226.077438,272.780365 
	C224.960251,271.570862 223.302429,270.601166 222.153015,271.830505 
	C218.509308,275.727600 213.049042,277.532562 210.104584,282.042511 
	C207.512756,286.012360 204.123734,289.166687 200.865585,292.470795 
	C199.533020,293.822144 197.961395,295.381500 194.825790,293.523376 
	C207.731003,276.777344 224.641434,263.732300 236.527130,246.168259 
	C235.363739,244.916473 234.410995,243.777039 233.342804,242.758698 
	C205.873016,216.570923 178.399124,190.387451 150.905334,164.224884 
	C144.888489,158.499374 142.070709,158.505035 136.286713,164.457321 
	C129.439163,171.504120 122.351112,178.372604 116.096252,185.922287 
	C111.150520,191.891846 103.580528,196.408417 103.440468,205.777115 
	C107.956047,207.292953 108.789513,210.769836 107.594276,214.931763 
	C106.698830,218.049820 104.750755,218.337738 102.372307,216.237076 
	C100.458412,214.546692 100.368889,212.180099 99.827370,209.907532 
	C99.095322,206.835388 97.443123,205.440247 94.593369,208.162628 
	C90.488022,212.084488 86.790977,216.340805 83.652054,221.089844 
	C73.749382,236.072113 71.332779,252.722580 72.056786,270.273346 
	C72.410263,278.842010 76.260323,285.530060 81.408836,291.774231 
	C83.569572,294.394775 86.564781,295.532959 89.933105,294.347595 
	C93.227753,293.188171 97.407295,292.935272 97.190582,287.690216 
	C97.121826,286.026276 97.937691,284.382538 100.248047,284.613586 
	C104.992393,285.088074 105.213890,282.072876 104.263451,278.849579 
	C102.427284,272.622345 102.832581,266.319885 103.050514,260.000000 
	C103.105118,258.416595 104.133415,256.536682 102.121185,255.523819 
	C100.055382,254.483963 98.243706,255.334763 96.713066,256.860840 
	C95.030289,258.538574 93.447990,259.896271 90.629593,259.228149 
	C84.816811,257.850128 82.749901,254.690933 82.985565,248.311676 
	C83.239182,241.446762 87.913521,236.904572 90.703041,231.334290 
	C93.191933,226.364334 97.529900,224.228073 101.874153,221.857422 
	C104.010834,220.691452 105.753494,221.808533 105.705986,224.052185 
	C105.638626,227.234222 105.285416,230.253616 107.597214,232.951508 
	C108.368095,233.851105 107.878906,235.333527 107.059189,236.198807 
	C103.925980,239.506165 103.503990,242.449921 105.172516,247.233810 
	C106.982483,252.423264 109.134674,255.435333 114.418671,256.526733 
	C117.021347,257.064301 119.479164,258.301270 120.912254,261.768036 
M108.997406,300.466309 
	C110.218483,301.814636 111.411835,303.189484 112.668846,304.503418 
	C113.802368,305.688293 115.253914,306.320221 116.636444,305.197083 
	C118.197906,303.928528 117.951500,302.202301 116.767296,300.787964 
	C115.497780,299.271790 114.045662,297.901428 112.610703,296.532990 
	C111.415329,295.393066 110.049164,293.936432 108.323456,295.195557 
	C106.305946,296.667633 107.410797,298.386871 108.997406,300.466309 
z"/>
<path fill="#000000" opacity="1.000000" stroke="none" 
	d="
M181.537155,222.889404 
	C175.715271,222.671112 171.175049,220.738754 168.474762,215.730331 
	C167.709961,214.311752 166.968887,212.597916 168.245377,211.076111 
	C169.350174,209.759033 170.934525,210.066010 172.414841,210.372696 
	C177.350830,211.395355 182.282166,212.398865 183.908554,218.278214 
	C184.497299,220.406540 184.743179,222.264328 181.537155,222.889404 
z"/>
</svg>