<svg version="1.1" id="Layer_1" xmlns="http://www.w3.org/2000/svg" xmlns:xlink="http://www.w3.org/1999/xlink" x="0px" y="0px"
	 width="100%" viewBox="0 0 1200 1200" enable-background="new 0 0 1200 1200" xml:space="preserve">
<path fill="#000000" opacity="1.000000" stroke="none" 
	d="
M768.000000,1201.000000 
	C512.000000,1201.000000 256.500000,1201.000000 1.000000,1201.000000 
	C1.000000,801.000000 1.000000,401.000000 1.000000,1.000000 
	C401.000000,1.000000 801.000000,1.000000 1201.000000,1.000000 
	C1201.000000,401.000000 1201.000000,801.000000 1201.000000,1201.000000 
	C1056.833374,1201.000000 912.666687,1201.000000 768.000000,1201.000000 
M270.554932,940.001953 
	C288.052063,940.002136 305.550079,940.083252 323.045105,939.891663 
	C325.041962,939.869873 327.555298,938.824341 328.914246,937.387878 
	C333.823273,932.198669 338.346985,926.644409 343.006317,921.219543 
	C370.859802,888.790344 398.702820,856.352112 426.564117,823.929688 
	C458.216980,787.094971 489.883789,750.272278 521.547546,713.446899 
	C532.335938,700.899902 543.133545,688.360779 553.863220,675.892090 
	C554.375427,676.161377 554.568237,676.198303 554.647217,676.313354 
	C614.079590,762.891113 673.514587,849.467163 732.880676,936.090332 
	C734.697876,938.741821 736.419617,940.109619 739.934082,940.102112 
	C803.261047,939.966553 866.588257,940.006348 929.915466,939.992615 
	C931.109558,939.992371 932.303711,939.797424 933.773804,939.669189 
	C843.803162,808.660156 754.137939,678.095886 664.358887,547.365784 
	C746.955933,451.300629 829.390076,355.425018 912.297424,258.998993 
	C898.501587,258.998993 885.543823,258.995575 872.586121,259.000488 
	C866.420532,259.002838 859.476868,257.255280 854.309814,259.532227 
	C849.220764,261.774811 845.930420,268.101501 841.854736,272.639740 
	C840.853943,273.754120 839.854614,274.870331 838.878418,276.006165 
	C811.112122,308.311768 783.348083,340.619293 755.585510,372.928101 
	C727.731812,405.342896 699.886169,437.764648 672.024536,470.172699 
	C660.877014,483.139252 649.696228,496.077179 638.280823,509.317932 
	C630.769531,498.431213 623.409180,487.814728 616.100830,477.162476 
	C567.019043,405.623016 517.939941,334.081635 468.908234,262.507843 
	C467.180206,259.985352 465.365265,258.897705 462.104614,258.904266 
	C398.777679,259.031555 335.450439,258.996124 272.123260,259.007416 
	C270.918182,259.007629 269.713135,259.168793 268.192108,259.277435 
	C354.982849,385.659241 441.454681,511.576660 527.996765,637.596375 
	C518.112793,649.118591 508.271973,660.620605 498.398712,672.094727 
	C466.828461,708.783691 435.234924,745.452576 403.671936,782.147766 
	C375.689972,814.679688 347.746368,847.244568 319.767273,879.778931 
	C303.168518,899.080200 286.526123,918.343994 269.961243,937.674194 
	C269.553436,938.150146 269.826538,939.209534 270.554932,940.001953 
z"/>
<path fill="#FEFEFE" opacity="1.000000" stroke="none" 
	d="
M270.168488,939.999390 
	C269.826538,939.209534 269.553436,938.150146 269.961243,937.674194 
	C286.526123,918.343994 303.168518,899.080200 319.767273,879.778931 
	C347.746368,847.244568 375.689972,814.679688 403.671936,782.147766 
	C435.234924,745.452576 466.828461,708.783691 498.398712,672.094727 
	C508.271973,660.620605 518.112793,649.118591 527.996765,637.596375 
	C441.454681,511.576660 354.982849,385.659241 268.192108,259.277435 
	C269.713135,259.168793 270.918182,259.007629 272.123260,259.007416 
	C335.450439,258.996124 398.777679,259.031555 462.104614,258.904266 
	C465.365265,258.897705 467.180206,259.985352 468.908234,262.507843 
	C517.939941,334.081635 567.019043,405.623016 616.100830,477.162476 
	C623.409180,487.814728 630.769531,498.431213 638.280823,509.317932 
	C649.696228,496.077179 660.877014,483.139252 672.024536,470.172699 
	C699.886169,437.764648 727.731812,405.342896 755.585510,372.928101 
	C783.348083,340.619293 811.112122,308.311768 838.878418,276.006165 
	C839.854614,274.870331 840.853943,273.754120 841.854736,272.639740 
	C845.930420,268.101501 849.220764,261.774811 854.309814,259.532227 
	C859.476868,257.255280 866.420532,259.002838 872.586121,259.000488 
	C885.543823,258.995575 898.501587,258.998993 912.297424,258.998993 
	C829.390076,355.425018 746.955933,451.300629 664.358887,547.365784 
	C754.137939,678.095886 843.803162,808.660156 933.773804,939.669189 
	C932.303711,939.797424 931.109558,939.992371 929.915466,939.992615 
	C866.588257,940.006348 803.261047,939.966553 739.934082,940.102112 
	C736.419617,940.109619 734.697876,938.741821 732.880676,936.090332 
	C673.514587,849.467163 614.079590,762.891113 554.647217,676.313354 
	C554.568237,676.198303 554.375427,676.161377 553.863220,675.892090 
	C543.133545,688.360779 532.335938,700.899902 521.547546,713.446899 
	C489.883789,750.272278 458.216980,787.094971 426.564117,823.929688 
	C398.702820,856.352112 370.859802,888.790344 343.006317,921.219543 
	C338.346985,926.644409 333.823273,932.198669 328.914246,937.387878 
	C327.555298,938.824341 325.041962,939.869873 323.045105,939.891663 
	C305.550079,940.083252 288.052063,940.002136 270.168488,939.999390 
M647.942566,732.567261 
	C686.414124,787.658081 724.885620,842.748901 763.116516,897.495117 
	C793.313538,897.495117 823.143921,897.495117 853.418335,897.495117 
	C852.136536,895.677185 851.188232,894.343079 850.250793,893.001282 
	C796.749939,816.421265 743.253479,739.838318 689.749207,663.260681 
	C606.688354,544.380493 523.613953,425.509796 440.614197,306.586945 
	C438.804230,303.993591 436.992676,302.970734 433.762695,302.990295 
	C407.432709,303.149536 381.101440,303.086670 354.770538,303.091309 
	C352.678741,303.091675 350.586945,303.091339 348.615021,303.091339 
	C348.483337,303.641602 348.364349,303.849915 348.423096,303.934052 
	C448.102081,446.632416 547.792847,589.322510 647.942566,732.567261 
z"/>
<path fill="#010101" opacity="1.000000" stroke="none" 
	d="
M647.713074,732.289917 
	C547.792847,589.322510 448.102081,446.632416 348.423096,303.934052 
	C348.364349,303.849915 348.483337,303.641602 348.615021,303.091339 
	C350.586945,303.091339 352.678741,303.091675 354.770538,303.091309 
	C381.101440,303.086670 407.432709,303.149536 433.762695,302.990295 
	C436.992676,302.970734 438.804230,303.993591 440.614197,306.586945 
	C523.613953,425.509796 606.688354,544.380493 689.749207,663.260681 
	C743.253479,739.838318 796.749939,816.421265 850.250793,893.001282 
	C851.188232,894.343079 852.136536,895.677185 853.418335,897.495117 
	C823.143921,897.495117 793.313538,897.495117 763.116516,897.495117 
	C724.885620,842.748901 686.414124,787.658081 647.713074,732.289917 
z"/>
</svg>